Coordinates
version=1
nRows=13
nColumns=36
inDegrees=yes

Units are S.I. units (second, meters, Newtons, ...)
If the header above contains a line with 'inDegrees', this indicates whether rotational values are in degrees (yes) or radians (no).

endheader
time	pelvis_tilt	pelvis_list	pelvis_rotation	pelvis_tx	pelvis_ty	pelvis_tz	hip_flexion_r	hip_adduction_r	hip_rotation_r	knee_angle_r	knee_angle_r_beta	ankle_angle_r	subtalar_angle_r	mtp_angle_r	hip_flexion_l	hip_adduction_l	hip_rotation_l	knee_angle_l	knee_angle_l_beta	ankle_angle_l	subtalar_angle_l	mtp_angle_l	lumbar_extension	lumbar_bending	lumbar_rotation	arm_flex_r	arm_add_r	arm_rot_r	elbow_flex_r	pro_sup_r	arm_flex_l	arm_add_l	arm_rot_l	elbow_flex_l	pro_sup_l
      0.00000000	     -0.03756807	     -0.44118218	     -6.50779016	      0.63445079	      0.90707983	      0.75611357	    -10.85859282	      2.19941972	      4.61469679	      5.02730152	      0.08774296	     11.72403328	     -3.62003211	     -7.05200965	     29.01612535	     -3.83636678	     -1.27653860	     15.89769749	      0.27746716	      4.18806719	     -4.64869863	     -7.05200965	     -7.46898804	      1.54061190	      7.14569658	     18.78867795	    -16.47232799	      2.54569732	     42.10588493	     89.93542710	      4.06402942	     -8.06726236	      0.77603187	     14.27315257	     90.89228429
      0.01666670	      0.50937713	     -1.17832661	     -7.21393159	      0.63653405	      0.90227383	      0.75269815	    -12.52665451	      2.81646648	      6.07883562	      4.23598495	      0.07393188	     11.88307406	     -4.94874042	     -7.01465681	     28.25487902	     -4.53093294	     -0.13684653	     12.34127566	      0.21539589	      6.23571391	     -4.32958670	     -7.01465681	     -8.62976749	      2.04023172	      6.91611548	     20.08173946	    -17.08024076	      3.51834592	     45.09407761	     89.53358742	      3.81344076	     -7.86500168	      0.77550722	     14.82748179	     90.71729596
      0.03333330	      1.00957797	     -0.37312812	     -6.86900566	      0.63981411	      0.89991237	      0.74961422	    -14.02417654	      1.90917116	      5.28632324	      4.26047960	      0.07435940	     12.66707256	     -5.23701729	     -7.04608942	     27.77715580	     -3.26966079	      0.93042206	     10.56982698	      0.18447828	      6.68754871	     -4.63350244	     -7.04608942	     -9.13116341	      0.98775301	      6.11257423	     20.80693813	    -17.14540249	      4.81904434	     45.90465015	     90.17656417	      3.91590764	     -7.99504985	      1.61248989	     14.10961334	     92.23843267
      0.05000000	      1.53942189	      0.35099178	     -6.50801960	      0.64432144	      0.89873178	      0.74591194	    -15.33556229	      0.96717867	      4.21727616	      4.92056851	      0.08588012	     14.12166203	     -4.76459414	     -7.15302416	     27.16270941	     -2.07988194	      1.66175419	     10.40052859	      0.18152347	      7.33606483	     -4.94438583	     -7.15302416	     -9.39002851	      0.04640965	      5.18084314	     21.19179203	    -16.82536897	      4.85164634	     45.56559918	     92.74315931	      3.96238140	     -8.09435742	      2.28757318	     13.15984517	     95.98653215
      0.06666670	      2.34052041	      0.93865391	     -6.13056852	      0.64828244	      0.89851099	      0.74183946	    -16.92762878	      0.12392954	      3.56875501	      6.07383336	      0.10600839	     15.04252574	     -4.63928062	     -7.16714661	     26.32031000	     -0.79757444	      2.17994534	     11.92186528	      0.20807580	      7.36412040	     -5.48226380	     -7.16714661	     -9.97508594	     -0.79444107	      4.35169749	     20.93635944	    -16.52097665	      4.51967981	     45.60976216	     92.77347728	      4.01240881	     -7.92600737	      2.24850162	     12.60884072	     95.97481196
      0.08333330	      3.03060831	      1.48930840	     -5.84587201	      0.65125521	      0.89757326	      0.73856442	    -18.02717057	     -0.80074596	      2.67079982	      8.10374908	      0.14143710	     15.65257398	     -4.40048732	     -7.19476385	     25.55975651	      0.44289464	      2.61828248	     14.11484018	      0.24635043	      6.17494313	     -6.24834229	     -7.19476385	    -10.39404177	     -1.58297379	      4.09273747	     20.09975849	    -16.37616015	      3.88328897	     45.64939553	     93.53718339	      4.44651499	     -7.72180217	      3.16032350	     11.50099974	     96.38545360
      0.10000000	      3.63904603	      1.96793642	     -5.59692948	      0.65368741	      0.89695525	      0.73638668	    -18.82002098	     -1.68753991	      1.85900079	     10.50807273	      0.18340047	     15.49199831	     -4.79273617	     -7.22932933	     24.75744520	      1.53692689	      2.82063111	     16.33320806	      0.28506826	      4.24746988	     -6.85927162	     -7.22932933	    -10.83668526	     -2.25694113	      3.74757102	     19.17416962	    -16.10256834	      3.54548866	     45.76514677	     93.74010354	      4.54394827	     -7.59634904	      3.99083494	     11.20547571	     96.03632822
      0.11666670	      4.10076760	      2.48514942	     -5.47378982	      0.65571818	      0.89728086	      0.73540673	    -19.15264191	     -2.60419820	      1.46494440	     13.28526501	      0.23187162	     14.44805599	     -5.98362222	     -7.28267824	     23.91747477	      2.49159239	      2.84037851	     18.20959675	      0.31781742	      2.19895196	     -7.26110976	     -7.28267824	    -11.16748608	     -2.99290444	      3.95250774	     17.25020222	    -15.56874258	      1.31686822	     46.93409288	     95.43974555	      4.77885301	     -7.59847844	      5.16039903	     11.17124230	     96.90268101
      0.13333330	      4.35214680	      2.93285821	     -5.34551568	      0.65733925	      0.89678281	      0.73484297	    -18.92962483	     -3.43739229	      1.03081551	     16.43465171	      0.28683878	     12.79072567	     -7.24008987	     -7.30311133	     23.19447776	      3.30309537	      3.08453585	     19.79622400	      0.34550929	      0.40719907	     -7.87776287	     -7.30311133	    -11.19279775	     -3.63252481	      3.71578450	     15.87281513	    -15.01717638	      1.01255837	     46.75941555	     94.44188322	      4.92061987	     -7.69611625	      5.53613127	     11.31523333	     95.36223498
      0.15000000	      4.69566970	      3.31598106	     -5.13706053	      0.65977913	      0.89589733	      0.73434431	    -18.29629846	     -4.20406613	      0.47562516	     20.35265372	      0.35522082	     10.12299049	     -8.58503028	     -7.34173955	     22.26391990	      4.06675289	      3.50646433	     21.14920310	      0.36912323	     -0.72750268	     -8.50978637	     -7.34173955	    -11.38806951	     -4.22981232	      3.62928198	     14.09655812	    -14.34839276	     -0.11746895	     46.73708994	     93.46383952	      5.31499640	     -8.00508428	      6.36689729	     11.99977145	     93.95868215
      0.16666670	      4.94680047	      3.63520879	     -4.96164922	      0.66426196	      0.89575844	      0.73361703	    -16.55875369	     -4.98113803	      0.00706029	     25.95546997	      0.45300841	      5.51887544	    -10.58325787	     -7.34773921	     21.26067302	      4.74632783	      3.89353198	     22.28661805	      0.38897486	     -1.30475201	     -9.33697633	     -7.34773921	    -11.46183233	     -4.76018853	      3.26368979	     12.55833345	    -13.61073075	     -0.61315527	     45.96931625	     93.60738491	      5.65734345	     -8.37002235	      6.47208234	     12.66436500	     93.99817061
      0.18333330	      5.15481487	      4.00798521	     -4.88100812	      0.66926748	      0.89606031	      0.73208822	    -13.53434209	     -5.99836688	     -0.42915646	     33.49313517	      0.58456549	     -1.13833815	    -12.94508713	     -7.35165681	     19.97125669	      5.47187654	      4.15280187	     22.89204092	      0.39954149	     -1.28486112	    -10.22997510	     -7.35165681	    -11.46394032	     -5.33111039	      2.93234749	     10.98722887	    -12.85791606	     -1.01183067	     44.80050483	     93.78689513	      6.07511689	     -8.69229541	      6.61293186	     13.06119296	     94.10610687
      0.20000000	      4.80032911	      4.10416304	     -4.98755976	      0.67184980	      0.89489536	      0.72957936	     -9.05434219	     -6.70017007	     -0.24139126	     41.79996042	      0.72954694	     -9.18955726	    -15.95078346	     -7.35930767	     19.07963344	      5.81355882	      4.31350234	     23.12795533	      0.40365897	     -0.63165981	    -11.08747077	     -7.35930767	    -10.77824880	     -5.52591923	      2.96887760	      9.43976557	    -12.14657792	     -1.85617753	     42.79223670	     94.27223637	      6.44871441	     -8.86391318	      7.06999133	     13.45846901	     94.43963118
